<?xml version="1.0" encoding="UTF-8" standalone="no"?>
<svg
   width="256"
   height="256"
   viewBox="0 0 256 256"
   version="1.1"
   style="clip-rule:evenodd;fill-rule:evenodd;stroke-linejoin:round;stroke-miterlimit:2"
   id="svg6"
   xml:space="preserve"
   sodipodi:docname="nextui_vectorized_shadow_dark.scg"
   inkscape:version="1.4 (e7c3feb1, 2024-10-09)"
   inkscape:export-filename="nextui_vectorized_brick_outline.png"
   inkscape:export-xdpi="455.11111"
   inkscape:export-ydpi="455.11111"
   xmlns:inkscape="http://www.inkscape.org/namespaces/inkscape"
   xmlns:sodipodi="http://sodipodi.sourceforge.net/DTD/sodipodi-0.dtd"
   xmlns="http://www.w3.org/2000/svg"
   xmlns:svg="http://www.w3.org/2000/svg"><sodipodi:namedview
     id="namedview1"
     pagecolor="#ffffff"
     bordercolor="#000000"
     borderopacity="0.25"
     inkscape:showpageshadow="2"
     inkscape:pageopacity="0.0"
     inkscape:pagecheckerboard="0"
     inkscape:deskcolor="#d1d1d1"
     showguides="false"
     inkscape:zoom="2"
     inkscape:cx="91.25"
     inkscape:cy="108"
     inkscape:window-width="1200"
     inkscape:window-height="815"
     inkscape:window-x="800"
     inkscape:window-y="441"
     inkscape:window-maximized="0"
     inkscape:current-layer="g6"
     showgrid="false"
     inkscape:export-bgcolor="#ffffff00"><sodipodi:guide
       position="4,230"
       orientation="1,0"
       id="guide1"
       inkscape:locked="false" /><sodipodi:guide
       position="212,232"
       orientation="1,0"
       id="guide2"
       inkscape:locked="false" /><sodipodi:guide
       position="188.43843,3"
       orientation="0,-1"
       id="guide3"
       inkscape:locked="false" /><sodipodi:guide
       position="108.44896,296.99061"
       orientation="0,-1"
       id="guide4"
       inkscape:locked="false" /><inkscape:grid
       id="grid1"
       units="px"
       originx="0"
       originy="0"
       spacingx="1"
       spacingy="1"
       empcolor="#0099e5"
       empopacity="0.30196078"
       color="#0099e5"
       opacity="0.14901961"
       empspacing="5"
       enabled="true"
       visible="false" /><sodipodi:guide
       position="5.6875,233"
       orientation="0,-1"
       id="guide5"
       inkscape:locked="false" /><sodipodi:guide
       position="162,68"
       orientation="0,-1"
       id="guide6"
       inkscape:locked="false" /><sodipodi:guide
       position="88.631415,65"
       orientation="0,-1"
       id="guide7"
       inkscape:locked="false" /></sodipodi:namedview><defs
     id="defs6"><linearGradient
       id="swatch6"
       inkscape:swatch="solid"><stop
         style="stop-color:#000000;stop-opacity:1;"
         offset="0"
         id="stop7" /></linearGradient><filter
       style="color-interpolation-filters:sRGB;"
       inkscape:label="Drop Shadow"
       id="filter476"
       x="-0.051504954"
       y="-0.039799283"
       width="1.1030099"
       height="1.0795986"><feFlood
         result="flood"
         in="SourceGraphic"
         flood-opacity="0.639216"
         flood-color="rgb(0,0,0)"
         id="feFlood475" /><feGaussianBlur
         result="blur"
         in="SourceGraphic"
         stdDeviation="7.272727"
         id="feGaussianBlur475" /><feOffset
         result="offset"
         in="blur"
         dx="0.000000"
         dy="0.000000"
         id="feOffset475" /><feComposite
         result="comp1"
         operator="in"
         in="flood"
         in2="offset"
         id="feComposite475" /><feComposite
         result="comp2"
         operator="over"
         in="SourceGraphic"
         in2="comp1"
         id="feComposite476" /></filter><filter
       style="color-interpolation-filters:sRGB;"
       inkscape:label="Drop Shadow"
       id="filter478"
       x="-0.13681004"
       y="-0.039799283"
       width="1.2736201"
       height="1.0795986"><feFlood
         result="flood"
         in="SourceGraphic"
         flood-opacity="0.639216"
         flood-color="rgb(0,0,0)"
         id="feFlood476" /><feGaussianBlur
         result="blur"
         in="SourceGraphic"
         stdDeviation="7.272727"
         id="feGaussianBlur476" /><feOffset
         result="offset"
         in="blur"
         dx="0.000000"
         dy="0.000000"
         id="feOffset476" /><feComposite
         result="comp1"
         operator="in"
         in="flood"
         in2="offset"
         id="feComposite477" /><feComposite
         result="comp2"
         operator="over"
         in="SourceGraphic"
         in2="comp1"
         id="feComposite478" /></filter></defs><rect
     style="clip-rule:evenodd;display:none;fill:#000000;fill-rule:evenodd;stroke-width:0.215485;stroke-linejoin:round;stroke-miterlimit:2"
     id="rect1"
     width="216"
     height="235"
     x="0"
     y="0" /><g
     id="g1"
     transform="matrix(0.37488837,0,0,0.37488837,-132.67833,-90.678333)"
     style="display:none;stroke:#000000;stroke-width:2.66746;stroke-dasharray:none;stroke-opacity:1"><path
       id="rect27-5-7"
       style="clip-rule:evenodd;fill:#9b2256;fill-opacity:1;fill-rule:evenodd;stroke:#000000;stroke-width:2.66746;stroke-linejoin:round;stroke-miterlimit:2;stroke-dasharray:none;stroke-opacity:1"
       d="M 716,925.90831 C 713.8847,925.99231 711.7681,926.69111 709.9258,928.04311 705.0128,931.64861 703.9609,938.50511 707.5664,943.41811 L 734.4433,980.04111 707.5664,1016.6662 C 703.9609,1021.5791 705.0128,1028.4377 709.9257,1032.0431 714.8388,1035.6486 721.6973,1034.5948 725.3027,1029.6818 L 748.0879,998.63491 770.8711,1029.6818 C 774.4765,1034.5948 781.335,1035.6485 786.248,1032.0431 791.161,1028.4376 792.2128,1021.5791 788.6074,1016.6661 L 761.7305,980.04121 788.6074,943.41811 C 792.2128,938.50511 791.161,931.64861 786.248,928.04311 781.335,924.43761 774.4765,925.48951 770.8711,930.40251 L 748.0878,961.44931 725.3027,930.40251 C 723.0493,927.33191 719.5254,925.76831 716,925.90831 Z" /><path
       id="rect30"
       style="clip-rule:evenodd;fill:#9b2256;fill-opacity:1;fill-rule:evenodd;stroke:#000000;stroke-width:2.66746;stroke-linejoin:round;stroke-miterlimit:2;stroke-dasharray:none;stroke-opacity:1"
       d="M 502,925.90831 C 495.906,925.90831 491,930.81431 491,936.90831 V 979.90831 1022.9083 C 491,1029.0023 495.906,1033.9083 502,1033.9083 H 566 C 572.094,1033.9083 577,1029.0023 577,1022.9083 577,1016.8143 572.094,1011.9083 566,1011.9083 H 513 V 990.90831 H 544 C 550.094,990.90831 555,986.00231 555,979.90831 555,973.81431 550.094,968.90831 544,968.90831 H 513 V 947.90831 H 566 C 572.094,947.90831 577,943.00231 577,936.90831 577,930.81431 572.094,925.90831 566,925.90831 Z" /><path
       id="rect26"
       style="fill:#ffffff;stroke:#000000;stroke-width:2.66746;stroke-dasharray:none;stroke-opacity:1"
       d="M 812,421.90831 H 900 C 911.08,421.90831 920,430.82831 920,441.90831 V 841.90831 C 920,852.98831 911.08,861.90831 900,861.90831 H 812 C 800.92,861.90831 792,852.98831 792,841.90831 V 441.90831 C 792,430.82831 800.92,421.90831 812,421.90831 Z" /><path
       id="rect26-2"
       style="fill:#ffffff;stroke:#000000;stroke-width:2.66746;stroke-dasharray:none;stroke-opacity:1"
       d="M 384,421.90831 C 372.92,421.90831 364,430.82831 364,441.90831 V 593.90831 691.90831 C 364,786.08831 439.82,861.90831 534,861.90831 628.18,861.90831 704,786.08831 704,691.90831 V 499.90831 441.90831 C 704,430.82831 695.08,421.90831 684,421.90831 H 596 C 584.92,421.90831 576,430.82831 576,441.90831 V 593.90831 691.90831 C 576,715.17631 557.268,733.90831 534,733.90831 510.732,733.90831 492,715.17631 492,691.90831 V 499.90831 441.90831 C 492,430.82831 483.08,421.90831 472,421.90831 Z" /><path
       id="rect27-8"
       style="clip-rule:evenodd;fill:#ffffff;fill-rule:evenodd;stroke:#000000;stroke-width:2.66746;stroke-linejoin:round;stroke-miterlimit:2;stroke-dasharray:none;stroke-opacity:1"
       d="M 824,249.90831 C 823.9182,249.90831 823.83922,249.91831 823.75781,249.92001 823.58253,249.92401 823.40765,249.93471 823.23242,249.94731 823.01176,249.96251 822.79299,249.98191 822.57617,250.00981 822.48277,250.02221 822.39006,250.03791 822.29688,250.05281 822.00186,250.09841 821.71047,250.15241 821.42383,250.22078 821.40943,250.22478 821.39523,250.22878 821.38083,250.23248 817.42335,251.19408 814.3239,254.27817 813.33981,258.22662 813.32941,258.26772 813.31851,258.30842 813.30861,258.34967 813.24501,258.61799 813.19404,258.89041 813.15041,259.16607 813.13391,259.26768 813.11721,259.36873 813.10351,259.47076 813.07551,259.68636 813.05451,259.90369 813.03901,260.1231 813.02621,260.29738 813.01821,260.47169 813.01361,260.64654 813.01161,260.73444 812.99991,260.8198 812.99991,260.90826 V 346.90826 C 812.99991,353.00226 817.90591,357.90826 823.99991,357.90826 830.09391,357.90826 834.99991,353.00226 834.99991,346.90826 V 294.13482 L 879.14444,353.46099 C 879.22294,353.56649 879.31104,353.6599 879.39249,353.76178 879.47319,353.86317 879.55632,353.96219 879.64053,354.0606 879.78458,354.22853 879.93195,354.39163 880.08389,354.54888 880.18149,354.64998 880.28134,354.74847 880.38272,354.84576 880.54666,355.00298 880.71305,355.15543 880.88468,355.30084 880.98118,355.38264 881.08031,355.46066 881.1796,355.53912 881.35493,355.67753 881.53074,355.81301 881.7128,355.93951 881.82908,356.02041 881.94875,356.09544 882.06827,356.17193 882.24662,356.28584 882.42563,356.39722 882.60929,356.50006 882.74068,356.57376 882.87498,356.64256 883.00968,356.71099 883.18642,356.80059 883.36414,356.88726 883.54483,356.96685 883.6925,357.03205 883.84301,357.09161 883.99405,357.15045 884.17726,357.22165 884.36045,357.29049 884.54679,357.35162 884.69431,357.40012 884.8438,357.44202 884.99405,357.48443 885.19186,357.54013 885.38937,357.59422 885.58975,357.63873 885.74007,357.67213 885.89223,357.69943 886.04483,357.72663 886.24545,357.76243 886.44606,357.79383 886.64835,357.81843 886.80425,357.83743 886.96116,357.85093 887.11905,357.86333 887.32574,357.87953 887.53264,357.89013 887.74014,357.89453 887.82744,357.89653 887.91211,357.90823 887.99991,357.90823 888.08171,357.90823 888.16069,357.89823 888.2421,357.89653 888.41738,357.89253 888.59226,357.88183 888.76749,357.86923 888.98815,357.85403 889.20692,357.83463 889.42374,357.80673 889.51714,357.79433 889.60985,357.77863 889.70303,357.76373 889.99805,357.71813 890.28944,357.66413 890.57608,357.59576 890.58208,357.59476 890.58778,357.59376 890.59368,357.59176 890.60268,357.58976 890.61048,357.58576 890.61908,357.58376 894.57595,356.62231 897.6755,353.53914 898.6601,349.59157 898.6707,349.54997 898.6813,349.50837 898.6913,349.46657 898.7549,349.19825 898.80587,348.92583 898.8495,348.65017 898.866,348.54856 898.8827,348.44751 898.8964,348.34548 898.9244,348.12988 898.9454,347.91255 898.9609,347.69314 898.9738,347.5187 898.9817,347.34471 898.9863,347.1697 898.9883,347.0818 899,346.99644 899,346.90798 V 260.90798 C 899,254.81398 894.094,249.90798 888,249.90798 881.906,249.90798 877,254.81398 877,260.90798 V 313.68142 L 832.85547,254.35525 C 832.77697,254.24975 832.68887,254.15634 832.60742,254.05446 832.52672,253.95307 832.44359,253.85405 832.35938,253.75564 832.21533,253.58771 832.06796,253.42461 831.91602,253.26736 831.81842,253.16626 831.71857,253.06777 831.61719,252.97048 831.45325,252.81326 831.28686,252.66081 831.11523,252.5154 831.01873,252.4336 830.9196,252.35558 830.82031,252.27712 830.64498,252.13871 830.46917,252.00323 830.28711,251.87673 830.17083,251.79583 830.05116,251.7208 829.93164,251.64431 829.75329,251.5304 829.57428,251.41902 829.39062,251.31618 829.25923,251.24248 829.12493,251.17368 828.99023,251.10525 828.81349,251.01565 828.63577,250.92898 828.45508,250.84939 828.30741,250.78419 828.1569,250.72463 828.00586,250.66579 827.82265,250.59459 827.63946,250.52575 827.45312,250.46462 827.3056,250.41612 827.15611,250.37422 827.00586,250.33181 826.80805,250.27611 826.61054,250.22202 826.41016,250.17751 826.25984,250.14411 826.10768,250.11681 825.95508,250.08961 825.75446,250.05381 825.55385,250.02241 825.35156,249.99781 825.19566,249.97881 825.03875,249.96531 824.88086,249.95291 824.67417,249.93671 824.46727,249.92611 824.25977,249.92171 824.17247,249.91971 824.0878,249.90801 824,249.90801 Z" /><path
       id="rect27"
       style="clip-rule:evenodd;fill:#ffffff;fill-rule:evenodd;stroke:#000000;stroke-width:2.66746;stroke-linejoin:round;stroke-miterlimit:2;stroke-dasharray:none;stroke-opacity:1"
       d="M 640,249.90831 C 646.094,249.90831 651,254.81431 651,260.90831 V 346.90831 C 651,353.00231 646.094,357.90831 640,357.90831 633.906,357.90831 629,353.00231 629,346.90831 V 260.90831 C 629,254.81431 633.906,249.90831 640,249.90831 Z" /><path
       id="rect28"
       style="fill:#ffffff;stroke:#000000;stroke-width:2.66746;stroke-dasharray:none;stroke-opacity:1"
       d="M 385.33203,249.82237 C 383.57753,249.75997 381.77862,250.12446 380.08594,250.96886 376.19278,252.91097 373.96432,256.84375 374,260.92003 V 346.90831 C 374,353.00231 378.906,357.90831 385,357.90831 391.094,357.90831 396,353.00231 396,346.90831 V 308.33019 L 417.33398,351.91026 C 419.28973,355.9055 423.31947,358.14552 427.46875,357.98448 431.97399,358.60392 436.53196,356.33556 438.65234,352.00401 L 460,308.39659 V 346.90831 C 460,353.00231 464.906,357.90831 471,357.90831 477.094,357.90831 482,353.00231 482,346.90831 V 260.90831 C 482,260.84161 481.991,260.77742 481.99,260.71104 481.986,260.51567 481.9747,260.32135 481.9607,260.12706 481.9476,259.93896 481.9323,259.75183 481.9099,259.56651 481.8934,259.43362 481.8726,259.30206 481.8513,259.17003 481.8134,258.93005 481.7715,258.6916 481.71849,258.45714 481.70209,258.38554 481.68159,258.31546 481.66379,258.24425 481.59219,257.95508 481.51348,257.67023 481.41965,257.39073 481.4188,257.38773 481.41865,257.38573 481.41765,257.38273 481.41465,257.37473 481.41065,257.36733 481.40765,257.35933 480.95093,256.01244 480.24391,254.78566 479.33734,253.73238 479.10401,253.46129 478.85752,253.20201 478.59906,252.95504 478.33774,252.70533 478.06379,252.46914 477.77875,252.24605 477.48988,252.01997 477.18955,251.80995 476.87836,251.61324 476.56611,251.41586 476.24422,251.23405 475.91156,251.06832 475.90756,251.06632 475.90356,251.06432 475.89986,251.06232 475.89286,251.05832 475.88556,251.05632 475.87836,251.05232 475.57488,250.90239 475.26346,250.76611 474.94476,250.64412 474.88046,250.61922 474.81589,250.59732 474.7514,250.57382 474.4978,250.48212 474.24193,250.39701 473.97992,250.32382 473.84683,250.28612 473.71313,250.25472 473.57953,250.22225 473.38371,250.17545 473.18753,250.13155 472.98773,250.0953 472.79814,250.0604 472.60929,250.0339 472.41937,250.0094 472.26114,249.9891 472.10312,249.9682 471.94281,249.9547 471.73065,249.9368 471.51972,249.9287 471.30804,249.9234 471.20446,249.9204 471.10375,249.9078 470.99945,249.9078 470.94265,249.9078 470.88803,249.9148 470.83148,249.9158 470.66549,249.9188 470.50056,249.9304 470.33539,249.9412 470.09577,249.9554 469.85765,249.9726 469.6225,250.0018 469.6081,250.0038 469.594,250.0078 469.5795,250.0098 465.22311,250.56815 461.68044,253.64741 460.46036,257.75394 L 428.01758,324.03331 395.5,257.61143 C 394.76707,255.26119 393.26595,253.25832 391.29297,251.88292 389.55471,250.61925 387.47804,249.89872 385.33203,249.82237 Z" /></g><g
     id="g6"
     style="clip-rule:evenodd;fill-rule:evenodd;stroke-linejoin:round;stroke-miterlimit:2"
     transform="matrix(0.37471205,0,0,0.37471205,-132.61414,-90.599506)"><path
       id="rect27-80"
       style="clip-rule:evenodd;fill:#9b2256;fill-opacity:1;fill-rule:evenodd;stroke-linejoin:round;stroke-miterlimit:2"
       d="M 898.05155,278.35252 C 891.95755,278.35252 887.05155,283.25852 887.05155,289.35252 887.05155,295.44652 891.95755,300.35252 898.05155,300.35252 H 919.05155 V 375.35252 C 919.05155,381.44652 923.95755,386.35252 930.05155,386.35252 936.14555,386.35252 941.05155,381.44652 941.05155,375.35252 V 300.35252 H 962.05155 C 968.14555,300.35252 973.05155,295.44652 973.05155,289.35252 973.05155,283.25852 968.14555,278.35252 962.05155,278.35252 H 930.05155 Z" /><path
       id="rect27-5-7-5"
       style="clip-rule:evenodd;fill:#9b2256;fill-opacity:1;fill-rule:evenodd;stroke-width:1.0929;stroke-linejoin:round;stroke-miterlimit:2"
       d="M 741.7129,278.36116 C 739.5976,278.44516 737.481,279.14396 735.6387,280.49596 730.7257,284.10146 729.6738,290.95796 733.2793,295.87096 L 760.1562,332.49396 733.2793,369.11905 C 729.6738,374.03195 730.7257,380.89055 735.6386,384.49595 740.5517,388.10145 747.4102,387.04765 751.0156,382.13465 L 773.8008,351.08776 796.584,382.13465 C 800.1894,387.04765 807.0479,388.10135 811.9609,384.49595 816.8739,380.89045 817.9257,374.03195 814.3203,369.11895 L 787.4434,332.49406 814.3203,295.87096 C 817.9257,290.95796 816.8739,284.10146 811.9609,280.49596 807.0479,276.89046 800.1894,277.94236 796.584,282.85536 L 773.8007,313.90216 751.0156,282.85536 C 748.7622,279.78476 745.2383,278.22116 741.7129,278.36116 Z" /><path
       id="rect30-5"
       style="clip-rule:evenodd;fill:#9b2256;fill-opacity:1;fill-rule:evenodd;stroke-linejoin:round;stroke-miterlimit:2"
       d="M 585.54801,278.35252 C 579.45401,278.35252 574.54801,283.25852 574.54801,289.35252 V 332.35252 375.35251 C 574.54801,381.44651 579.45401,386.35251 585.54801,386.35251 H 649.54801 C 655.64201,386.35251 660.54801,381.44651 660.54801,375.35251 660.54801,369.25851 655.64201,364.35251 649.54801,364.35251 H 596.54801 V 343.35252 H 627.54801 C 633.64201,343.35252 638.54801,338.44652 638.54801,332.35252 638.54801,326.25852 633.64201,321.35252 627.54801,321.35252 H 596.54801 V 300.35252 H 649.54801 C 655.64201,300.35252 660.54801,295.44652 660.54801,289.35252 660.54801,283.25852 655.64201,278.35252 649.54801,278.35252 Z" /><path
       id="rect27-8-9"
       style="clip-rule:evenodd;display:inline;fill:#9b2256;fill-opacity:1;fill-rule:evenodd;stroke-linejoin:round;stroke-miterlimit:2"
       d="M 428.95874,278.35285 C 428.87694,278.35285 428.79796,278.36285 428.71655,278.36455 428.54127,278.36855 428.36639,278.37925 428.19116,278.39185 427.9705,278.40705 427.75173,278.42645 427.53491,278.45435 427.44151,278.46675 427.3488,278.48245 427.25562,278.49735 426.9606,278.54295 426.66921,278.59695 426.38257,278.66532 426.36817,278.66932 426.35397,278.67332 426.33957,278.67702 422.38209,279.63862 419.28264,282.72271 418.29855,286.67116 418.28815,286.71226 418.27725,286.75296 418.26735,286.79421 418.20375,287.06253 418.15278,287.33495 418.10915,287.61061 418.09265,287.71222 418.07595,287.81327 418.06225,287.9153 418.03425,288.1309 418.01325,288.34823 417.99775,288.56764 417.98495,288.74192 417.97695,288.91623 417.97235,289.09108 417.97035,289.17898 417.95865,289.26434 417.95865,289.3528 V 375.35272 C 417.95865,381.44672 422.86465,386.35272 428.95865,386.35272 435.05265,386.35272 439.95865,381.44672 439.95865,375.35272 V 322.57936 L 484.10318,381.90552 C 484.18168,382.01102 484.26978,382.10442 484.35123,382.20632 484.43193,382.30762 484.51506,382.40672 484.59927,382.50512 484.74332,382.67302 484.89069,382.83612 485.04263,382.99342 485.14023,383.09452 485.24008,383.19302 485.34146,383.29022 485.5054,383.44752 485.67179,383.59992 485.84342,383.74532 485.93992,383.82712 486.03905,383.90512 486.13834,383.98362 486.31367,384.12202 486.48948,384.25752 486.67154,384.38402 486.78782,384.46492 486.90749,384.53992 487.02701,384.61642 487.20536,384.73032 487.38437,384.84172 487.56803,384.94452 487.69942,385.01822 487.83372,385.08702 487.96842,385.15552 488.14516,385.24512 488.32288,385.33172 488.50357,385.41132 488.65124,385.47652 488.80175,385.53612 488.95279,385.59492 489.136,385.66612 489.31919,385.73502 489.50553,385.79612 489.65305,385.84462 489.80254,385.88652 489.95279,385.92892 490.1506,385.98462 490.34811,386.03872 490.54849,386.08322 490.69881,386.11662 490.85097,386.14392 491.00357,386.17112 491.20419,386.20692 491.4048,386.23832 491.60709,386.26292 491.76299,386.28192 491.9199,386.29542 492.07779,386.30782 492.28448,386.32402 492.49138,386.33462 492.69888,386.33902 492.78618,386.34102 492.87085,386.35272 492.95865,386.35272 493.04045,386.35272 493.11943,386.34272 493.20084,386.34102 493.37612,386.33702 493.551,386.32632 493.72623,386.31372 493.94689,386.29852 494.16566,386.27912 494.38248,386.25122 494.47588,386.23882 494.56859,386.22312 494.66177,386.20822 494.95679,386.16262 495.24818,386.10862 495.53482,386.04022 495.54082,386.03922 495.54652,386.03822 495.55242,386.03622 495.56142,386.03422 495.56922,386.03022 495.57782,386.02822 499.53469,385.06682 502.63424,381.98362 503.61884,378.03612 503.62944,377.99452 503.64004,377.95292 503.65004,377.91112 503.71364,377.64272 503.76461,377.37032 503.80824,377.09472 503.82474,376.99302 503.84144,376.89202 503.85514,376.79002 503.88314,376.57442 503.90414,376.35702 503.91964,376.13762 503.93254,375.96322 503.94044,375.78922 503.94504,375.61422 503.94704,375.52632 503.95874,375.44092 503.95874,375.35252 V 289.35252 C 503.95874,283.25852 499.05274,278.35252 492.95874,278.35252 486.86474,278.35252 481.95874,283.25852 481.95874,289.35252 V 342.12596 L 437.81421,282.79979 C 437.73571,282.69429 437.64761,282.60088 437.56616,282.499 437.48546,282.39761 437.40233,282.29859 437.31812,282.20018 437.17407,282.03225 437.0267,281.86915 436.87476,281.7119 436.77716,281.6108 436.67731,281.51231 436.57593,281.41502 436.41199,281.2578 436.2456,281.10535 436.07397,280.95994 435.97747,280.87814 435.87834,280.80012 435.77905,280.72166 435.60372,280.58325 435.42791,280.44777 435.24585,280.32127 435.12957,280.24037 435.0099,280.16534 434.89038,280.08885 434.71203,279.97494 434.53302,279.86356 434.34936,279.76072 434.21797,279.68702 434.08367,279.61822 433.94897,279.54979 433.77223,279.46019 433.59451,279.37352 433.41382,279.29393 433.26615,279.22873 433.11564,279.16917 432.9646,279.11033 432.78139,279.03913 432.5982,278.97029 432.41186,278.90916 432.26434,278.86066 432.11485,278.81876 431.9646,278.77635 431.76679,278.72065 431.56928,278.66656 431.3689,278.62205 431.21858,278.58865 431.06642,278.56135 430.91382,278.53415 430.7132,278.49835 430.51259,278.46695 430.3103,278.44235 430.1544,278.42335 429.99749,278.40985 429.8396,278.39745 429.63291,278.38125 429.42601,278.37065 429.21851,278.36625 429.13121,278.36425 429.04654,278.35255 428.95874,278.35255 Z" /><path
       id="rect26-4"
       style="display:inline;fill:#000000;stroke:none;stroke-width:10.6749;stroke-linejoin:round;stroke-dasharray:none;stroke-opacity:1;filter:url(#filter478)"
       d="M 865.40395,449.84313 H 953.11681 C 964.16066,449.84313 973.05155,458.73402 973.05155,469.77787 V 868.47269 C 973.05155,879.51654 964.16066,888.40743 953.11681,888.40743 H 865.40395 C 854.3601,888.40743 845.46921,879.51654 845.46921,868.47269 V 469.77787 C 845.46921,458.73402 854.3601,449.84313 865.40395,449.84313 Z"
       inkscape:label="I" /><path
       id="rect26-2-1"
       style="display:inline;fill:#000000;stroke:none;stroke-width:10.6749;stroke-linejoin:round;stroke-dasharray:none;stroke-opacity:1;filter:url(#filter476)"
       d="M 438.80049,449.84313 C 427.75664,449.84313 418.86575,458.73402 418.86575,469.77787 V 621.2819 718.96214 C 418.86575,812.83483 494.43836,888.40743 588.31105,888.40743 682.18374,888.40743 757.75635,812.83483 757.75635,718.96214 V 527.58861 469.77787 C 757.75635,458.73402 748.86545,449.84313 737.8216,449.84313 H 650.10875 C 639.0649,449.84313 630.174,458.73402 630.174,469.77787 V 621.2819 718.96214 C 630.174,742.15421 611.50313,760.82509 588.31105,760.82509 565.11897,760.82509 546.44809,742.15421 546.44809,718.96214 V 527.58861 469.77787 C 546.44809,458.73402 537.5572,449.84313 526.51335,449.84313 Z"
       inkscape:label="U" /></g></svg>
